<?xml version="1.0" encoding="UTF-8" standalone="no"?>
<!-- Created with Inkscape (http://www.inkscape.org/) -->

<svg
   xmlns:dc="http://purl.org/dc/elements/1.1/"
   xmlns:cc="http://creativecommons.org/ns#"
   xmlns:rdf="http://www.w3.org/1999/02/22-rdf-syntax-ns#"
   xmlns:svg="http://www.w3.org/2000/svg"
   xmlns="http://www.w3.org/2000/svg"
   xmlns:sodipodi="http://sodipodi.sourceforge.net/DTD/sodipodi-0.dtd"
   xmlns:inkscape="http://www.inkscape.org/namespaces/inkscape"
   width="35"
   height="115"
   id="svg2"
   version="1.1"
   inkscape:version="0.48.3.1 r9886">
   
  <sodipodi:namedview
     id="base"
     pagecolor="#ffffff"
     bordercolor="#666666"
     borderopacity="1.0"
     inkscape:pageopacity="0.0"
     inkscape:pageshadow="2"
     inkscape:zoom="0.7"
     inkscape:cx="399.34065"
     inkscape:cy="554.09163"
     inkscape:document-units="px"
     inkscape:current-layer="layer1"
     showgrid="false"
     inkscape:window-width="1855"
     inkscape:window-height="1056"
     inkscape:window-x="65"
     inkscape:window-y="24"
     inkscape:window-maximized="1" />
     
  <metadata
     id="metadata7">
    <rdf:RDF>
      <cc:Work
         rdf:about="">
        <dc:format>image/svg+xml</dc:format>
        <dc:type
           rdf:resource="http://purl.org/dc/dcmitype/StillImage" />
        <dc:title></dc:title>
      </cc:Work>
    </rdf:RDF>
  </metadata>

        <g id="layer1" transform="translate(-368.44531, -341.60941)">
            <g id="g3003">
                <path id="path3096770" style="stroke: #FF000000; stroke-width: 2; stroke-linecap: round; stroke-linejoin: round; stroke-miterlimit: 4.0; fill-rule: nonzero;"
                	StrokeThickness="2" d="m 376.30167 376.37905 6.92006 3.16001 0 8.42671" />
                
                <path id="path30967709" StrokeThickness="2" Stroke="#FF000000" StrokeMiterLimit="4" StrokeLineJoin="Round" StrokeStartLineCap="Round" StrokeEndLineCap="Round"
                	d="m 395.07312 376.43056 -6.92006 3.16001 0 8.42671" FillRule="NonZero" />

                <path id="path393965" StrokeThickness="1" Stroke="#FF000000" StrokeMiterLimit="4" StrokeLineJoin="Miter" StrokeStartLineCap="Flat" StrokeEndLineCap="Flat"
                	d="m 378.55617 358.60447 0 15.06127" FillRule="NonZero" />

                <path id="path394105" StrokeThickness="1" Stroke="#FF000000" StrokeMiterLimit="4" StrokeLineJoin="Miter" StrokeStartLineCap="Round" StrokeEndLineCap="Round"
                	d="m 381.40989 373.66574 -5.70743 0" FillRule="NonZero" />
                
                <path id="path394323" StrokeThickness="3" Stroke="#FF000000" StrokeMiterLimit="4" StrokeLineJoin="Miter" StrokeStartLineCap="Flat" StrokeEndLineCap="Flat"
                	d="m 380.69646 363.5055 -4.28057 0" FillRule="NonZero" />
                
                <path id="path39122243" Fill="#FFCCCCCC" Stroke="#FF000000"
                	d="m 395 167.36218 c 0 2.76143 -2.23858 5 -5 5 -2.76142 0 -5 -2.23857 -5 -5 0 -2.76142 2.23858 -5 5 -5 2.76142 0 5 2.23858 5 5 z" FillRule="NonZero"
                	transform="matrix(0.80062412,0,0,0.80062412,60.60534,229.56462)" />
                
                <path id="path391222983" Fill="#FFCCCCCC" Stroke="#FF000000"
                	d="m 395 167.36218 c 0 2.76143 -2.23858 5 -5 5 -2.76142 0 -5 -2.23857 -5 -5 0 -2.76142 2.23858 -5 5 -5 2.76142 0 5 2.23858 5 5 z" FillRule="NonZero"
                	transform="matrix(0.80062412, 0, 0, 0.80062412, 72.02019, 229.56462)" />

                <path id="path3912229567" Fill="#FFCCCCCC" Stroke="#FF000000"
                	d="m 395 167.36218 c 0 2.76143 -2.23858 5 -5 5 -2.76142 0 -5 -2.23857 -5 -5 0 -2.76142 2.23858 -5 5 -5 2.76142 0 5 2.23858 5 5 z" FillRule="NonZero"
                	transform="matrix(0.80062412, 0, 0, 0.80062412, 66.31277, 221.00348)" />
                
                <path id="path30967708" StrokeThickness="2" Stroke="#FF000000" StrokeMiterLimit="4" StrokeLineJoin="Round" StrokeStartLineCap="Round" StrokeEndLineCap="Round"
                	d="m 395.12691 430.59197 -6.92006 -3.16001 0 -8.42671" FillRule="NonZero" />
                
                <path id="path309677099" StrokeThickness="2" Stroke="#FF000000" StrokeMiterLimit="4" StrokeLineJoin="Round" StrokeStartLineCap="Round" StrokeEndLineCap="Round"
                	d="m 376.35546 430.54046 6.92006 -3.16001 0 -8.42671" FillRule="NonZero" />
                
                <path id="path3939652" StrokeThickness="1" Stroke="#FF000000" StrokeMiterLimit="4" StrokeLineJoin="Miter" StrokeStartLineCap="Flat" StrokeEndLineCap="Flat"
                	d="m 392.87241 448.36655 0 -15.06127" FillRule="NonZero" />
                
                <path id="path3941052" StrokeThickness="1" Stroke="#FF000000" StrokeMiterLimit="4" StrokeLineJoin="Miter" StrokeStartLineCap="Round" StrokeEndLineCap="Round"
                	d="m 390.01869 433.30528 5.70743 0" FillRule="NonZero" />

                <path id="path3943238" StrokeThickness="3" Stroke="#FF000000" StrokeMiterLimit="4" StrokeLineJoin="Miter" StrokeStartLineCap="Flat" StrokeEndLineCap="Flat"
                	d="m 390.73212 443.46552 4.28057 0" FillRule="NonZero" />

                <path id="path391222432" Fill="#FFCCCCCC" Stroke="#FF000000"
                	d="m 395 167.36218 c 0 2.76143 -2.23858 5 -5 5 -2.76142 0 -5 -2.23857 -5 -5 0 -2.76142 2.23858 -5 5 -5 2.76142 0 5 2.23858 5 5 z" FillRule="NonZero"
                	transform="matrix(-0.80062412, 0, 0, -0.80062412, 710.82324, 577.4064)" />

                <path id="path3912229838" Fill="#FFCCCCCC" Stroke="#FF000000"
                	d="m 395 167.36218 c 0 2.76143 -2.23858 5 -5 5 -2.76142 0 -5 -2.23857 -5 -5 0 -2.76142 2.23858 -5 5 -5 2.76142 0 5 2.23858 5 5 z" FillRule="NonZero"
                	transform="matrix(-0.80062412, 0, 0, -0.80062412, 699.40839, 577.4064)" />

                <path id="path39122295679" Fill="#FFCCCCCC" Stroke="#FF000000"
                	d="m 395 167.36218 c 0 2.76143 -2.23858 5 -5 5 -2.76142 0 -5 -2.23857 -5 -5 0 -2.76142 2.23858 -5 5 -5 2.76142 0 5 2.23858 5 5 z" FillRule="NonZero"
                	transform="matrix(-0.80062412, 0, 0, -0.80062412, 705.11581, 585.96754)" />
            </g>
            
            <text id="text2998" FontSize="11" FontWeight="Bold" FontFamily="Arial" FontStyle="normal" Foreground="#FF000000" x="369" y="339">Text</text>
            
	</g>
</svg>